<mxfile host="app.diagrams.net" agent="Mozilla/5.0 (Windows NT 10.0; Win64; x64; rv:135.0) Gecko/20100101 Firefox/135.0" version="26.0.16">
  <diagram name="Seite-1" id="sihXfu-lFjJz-XsrYJUm">
    <mxGraphModel dx="1434" dy="746" grid="1" gridSize="10" guides="1" tooltips="1" connect="1" arrows="1" fold="1" page="1" pageScale="1" pageWidth="827" pageHeight="1169" math="0" shadow="0">
      <root>
        <mxCell id="0" />
        <mxCell id="1" parent="0" />
        <mxCell id="nmAbafUozAWk46EHChWK-4" value="" style="edgeStyle=orthogonalEdgeStyle;rounded=0;orthogonalLoop=1;jettySize=auto;html=1;" edge="1" parent="1" source="nmAbafUozAWk46EHChWK-1" target="nmAbafUozAWk46EHChWK-3">
          <mxGeometry relative="1" as="geometry" />
        </mxCell>
        <mxCell id="nmAbafUozAWk46EHChWK-1" value="/lobby" style="rounded=1;whiteSpace=wrap;html=1;" vertex="1" parent="1">
          <mxGeometry x="240" y="120" width="120" height="40" as="geometry" />
        </mxCell>
        <mxCell id="nmAbafUozAWk46EHChWK-6" style="edgeStyle=orthogonalEdgeStyle;rounded=0;orthogonalLoop=1;jettySize=auto;html=1;" edge="1" parent="1" source="nmAbafUozAWk46EHChWK-3" target="nmAbafUozAWk46EHChWK-5">
          <mxGeometry relative="1" as="geometry" />
        </mxCell>
        <mxCell id="nmAbafUozAWk46EHChWK-3" value="PLUGIN" style="rounded=1;whiteSpace=wrap;html=1;" vertex="1" parent="1">
          <mxGeometry x="240" y="210" width="120" height="60" as="geometry" />
        </mxCell>
        <mxCell id="nmAbafUozAWk46EHChWK-12" style="edgeStyle=orthogonalEdgeStyle;rounded=0;orthogonalLoop=1;jettySize=auto;html=1;" edge="1" parent="1">
          <mxGeometry relative="1" as="geometry">
            <mxPoint x="390.0044827586207" y="320" as="sourcePoint" />
            <mxPoint x="360" y="70" as="targetPoint" />
            <Array as="points">
              <mxPoint x="390" y="70" />
            </Array>
          </mxGeometry>
        </mxCell>
        <mxCell id="nmAbafUozAWk46EHChWK-13" value="error" style="edgeLabel;html=1;align=center;verticalAlign=middle;resizable=0;points=[];" vertex="1" connectable="0" parent="nmAbafUozAWk46EHChWK-12">
          <mxGeometry x="0.0593" y="-2" relative="1" as="geometry">
            <mxPoint as="offset" />
          </mxGeometry>
        </mxCell>
        <mxCell id="nmAbafUozAWk46EHChWK-15" style="edgeStyle=orthogonalEdgeStyle;rounded=0;orthogonalLoop=1;jettySize=auto;html=1;" edge="1" parent="1" source="nmAbafUozAWk46EHChWK-5" target="nmAbafUozAWk46EHChWK-14">
          <mxGeometry relative="1" as="geometry">
            <Array as="points">
              <mxPoint x="260" y="340" />
            </Array>
          </mxGeometry>
        </mxCell>
        <mxCell id="nmAbafUozAWk46EHChWK-5" value="VELOCITY" style="rounded=1;whiteSpace=wrap;html=1;" vertex="1" parent="1">
          <mxGeometry x="294" y="320" width="120" height="60" as="geometry" />
        </mxCell>
        <mxCell id="nmAbafUozAWk46EHChWK-9" style="edgeStyle=orthogonalEdgeStyle;rounded=0;orthogonalLoop=1;jettySize=auto;html=1;entryX=0.67;entryY=1.008;entryDx=0;entryDy=0;entryPerimeter=0;" edge="1" parent="1" source="nmAbafUozAWk46EHChWK-7" target="nmAbafUozAWk46EHChWK-5">
          <mxGeometry relative="1" as="geometry">
            <mxPoint x="539.9999999999998" y="420" as="targetPoint" />
            <Array as="points">
              <mxPoint x="540" y="400" />
              <mxPoint x="374" y="400" />
            </Array>
          </mxGeometry>
        </mxCell>
        <mxCell id="nmAbafUozAWk46EHChWK-11" value="Message" style="edgeLabel;html=1;align=center;verticalAlign=middle;resizable=0;points=[];" vertex="1" connectable="0" parent="nmAbafUozAWk46EHChWK-9">
          <mxGeometry x="0.0017" y="-4" relative="1" as="geometry">
            <mxPoint as="offset" />
          </mxGeometry>
        </mxCell>
        <mxCell id="nmAbafUozAWk46EHChWK-7" value="SEVERS" style="rounded=1;whiteSpace=wrap;html=1;" vertex="1" parent="1">
          <mxGeometry x="480" y="280" width="120" height="60" as="geometry" />
        </mxCell>
        <mxCell id="nmAbafUozAWk46EHChWK-8" style="edgeStyle=orthogonalEdgeStyle;rounded=0;orthogonalLoop=1;jettySize=auto;html=1;entryX=0.057;entryY=0.514;entryDx=0;entryDy=0;entryPerimeter=0;" edge="1" parent="1" source="nmAbafUozAWk46EHChWK-5" target="nmAbafUozAWk46EHChWK-7">
          <mxGeometry relative="1" as="geometry" />
        </mxCell>
        <mxCell id="nmAbafUozAWk46EHChWK-10" value="Chack" style="edgeLabel;html=1;align=center;verticalAlign=middle;resizable=0;points=[];" vertex="1" connectable="0" parent="nmAbafUozAWk46EHChWK-8">
          <mxGeometry x="-0.1916" y="6" relative="1" as="geometry">
            <mxPoint as="offset" />
          </mxGeometry>
        </mxCell>
        <mxCell id="nmAbafUozAWk46EHChWK-16" style="edgeStyle=orthogonalEdgeStyle;rounded=0;orthogonalLoop=1;jettySize=auto;html=1;" edge="1" parent="1" source="nmAbafUozAWk46EHChWK-14">
          <mxGeometry relative="1" as="geometry">
            <mxPoint x="240" y="70" as="targetPoint" />
            <Array as="points">
              <mxPoint x="160" y="430" />
              <mxPoint x="160" y="70" />
              <mxPoint x="240" y="70" />
            </Array>
          </mxGeometry>
        </mxCell>
        <mxCell id="nmAbafUozAWk46EHChWK-19" value="NO perms" style="edgeLabel;html=1;align=center;verticalAlign=middle;resizable=0;points=[];" vertex="1" connectable="0" parent="nmAbafUozAWk46EHChWK-16">
          <mxGeometry x="-0.1157" y="1" relative="1" as="geometry">
            <mxPoint as="offset" />
          </mxGeometry>
        </mxCell>
        <mxCell id="nmAbafUozAWk46EHChWK-22" value="" style="edgeStyle=orthogonalEdgeStyle;rounded=0;orthogonalLoop=1;jettySize=auto;html=1;" edge="1" parent="1" source="nmAbafUozAWk46EHChWK-14" target="nmAbafUozAWk46EHChWK-21">
          <mxGeometry relative="1" as="geometry" />
        </mxCell>
        <mxCell id="nmAbafUozAWk46EHChWK-14" value="PERMISSION" style="rounded=1;whiteSpace=wrap;html=1;" vertex="1" parent="1">
          <mxGeometry x="200" y="400" width="120" height="60" as="geometry" />
        </mxCell>
        <mxCell id="nmAbafUozAWk46EHChWK-18" value="" style="edgeStyle=orthogonalEdgeStyle;rounded=0;orthogonalLoop=1;jettySize=auto;html=1;" edge="1" parent="1" source="nmAbafUozAWk46EHChWK-17" target="nmAbafUozAWk46EHChWK-1">
          <mxGeometry relative="1" as="geometry" />
        </mxCell>
        <mxCell id="nmAbafUozAWk46EHChWK-17" value="user" style="rounded=1;whiteSpace=wrap;html=1;" vertex="1" parent="1">
          <mxGeometry x="240" y="50" width="120" height="40" as="geometry" />
        </mxCell>
        <mxCell id="nmAbafUozAWk46EHChWK-21" value="server" style="rounded=1;whiteSpace=wrap;html=1;" vertex="1" parent="1">
          <mxGeometry x="200" y="520" width="120" height="60" as="geometry" />
        </mxCell>
      </root>
    </mxGraphModel>
  </diagram>
</mxfile>
